<svg width="74" height="69" viewBox="0 0 74 69" fill="none" xmlns="http://www.w3.org/2000/svg">
<ellipse cx="1.61236" cy="67.4936" rx="1.50655" ry="1.61236" transform="rotate(-90 1.61236 67.4936)" fill="#C15A3E"/>
<ellipse cx="1.61236" cy="28.022" rx="1.50655" ry="1.61236" transform="rotate(-90 1.61236 28.022)" fill="#C15A3E"/>
<ellipse cx="15.8013" cy="67.4936" rx="1.50655" ry="1.61236" transform="rotate(-90 15.8013 67.4936)" fill="#C15A3E"/>
<ellipse cx="15.8013" cy="28.022" rx="1.50655" ry="1.61236" transform="rotate(-90 15.8013 28.022)" fill="#C15A3E"/>
<ellipse cx="29.9898" cy="67.4936" rx="1.50655" ry="1.61236" transform="rotate(-90 29.9898 67.4936)" fill="#C15A3E"/>
<ellipse cx="29.9898" cy="28.022" rx="1.50655" ry="1.61236" transform="rotate(-90 29.9898 28.022)" fill="#C15A3E"/>
<ellipse cx="44.1788" cy="67.4936" rx="1.50655" ry="1.61236" transform="rotate(-90 44.1788 67.4936)" fill="#C15A3E"/>
<ellipse cx="44.1788" cy="28.022" rx="1.50655" ry="1.61236" transform="rotate(-90 44.1788 28.022)" fill="#C15A3E"/>
<ellipse cx="1.61236" cy="54.236" rx="1.50655" ry="1.61236" transform="rotate(-90 1.61236 54.236)" fill="#C15A3E"/>
<ellipse cx="15.8013" cy="54.236" rx="1.50655" ry="1.61236" transform="rotate(-90 15.8013 54.236)" fill="#C15A3E"/>
<ellipse cx="29.9898" cy="54.236" rx="1.50655" ry="1.61236" transform="rotate(-90 29.9898 54.236)" fill="#C15A3E"/>
<ellipse cx="44.1788" cy="54.236" rx="1.50655" ry="1.61236" transform="rotate(-90 44.1788 54.236)" fill="#C15A3E"/>
<ellipse cx="1.61236" cy="40.9782" rx="1.50655" ry="1.61236" transform="rotate(-90 1.61236 40.9782)" fill="#C15A3E"/>
<ellipse cx="15.8013" cy="40.9782" rx="1.50655" ry="1.61236" transform="rotate(-90 15.8013 40.9782)" fill="#C15A3E"/>
<ellipse cx="29.9898" cy="40.9782" rx="1.50655" ry="1.61236" transform="rotate(-90 29.9898 40.9782)" fill="#C15A3E"/>
<ellipse cx="44.1788" cy="40.9782" rx="1.50655" ry="1.61236" transform="rotate(-90 44.1788 40.9782)" fill="#C15A3E"/>
</svg>
