<svg width="72" height="72" viewBox="0 0 72 72" fill="none" xmlns="http://www.w3.org/2000/svg">
<path d="M25.2648 6.90266C25.7886 6.52301 25.8888 6.24047 26.3038 5.8515C27.5595 4.67452 29.2658 2.3391 31.0695 2.1035C31.5479 2.06382 32.1339 2.21625 32.4787 2.55964C34.2697 4.34258 32.9543 5.46413 31.7353 6.83382C32.5092 6.69431 33.8588 6.85494 34.6929 6.85999C35.9764 6.86777 37.2596 6.86653 38.5433 6.86452L54.9422 6.86533L60.3677 6.85828C61.3244 6.8562 62.5793 6.88766 63.517 6.82041C63.6024 8.06175 63.5022 10.0776 63.4998 11.3858L63.5007 20.9057L63.4992 47.1945C63.4982 52.2522 63.3862 57.789 63.5846 62.8028L34.8541 62.7972L26.0487 62.8122C25.3628 62.8095 23.0382 62.8386 22.5329 62.7268C21.1086 64.4351 19.5512 69.0256 16.8203 67.2709C14.9515 66.07 16.2003 64.1064 17.0424 62.7365C16.074 62.8076 14.7037 62.7916 13.7195 62.7964C11.6408 62.7909 9.56214 62.8042 7.4837 62.8364C7.6263 60.9023 7.55184 58.3119 7.54902 56.3448L7.54431 45.4329L7.56681 6.83721C9.06173 6.95103 11.4213 6.86107 12.9996 6.85001C15.8385 6.82611 18.6775 6.82963 21.5163 6.86058C22.3917 6.86549 24.5436 6.74439 25.2648 6.90266ZM28.123 42.2696C29.0024 42.1285 32.0719 42.1914 33.0966 42.1928L42.9824 42.202C42.8604 41.387 42.903 40.0033 42.9038 39.1361L42.9042 34.2001L42.9057 29.955C42.906 29.2475 42.8715 28.1232 42.9694 27.4544C40.0148 27.3457 36.9121 27.4814 33.9489 27.4286C33.0076 27.4118 31.6423 27.5008 30.7774 27.444C31.0953 26.052 31.0666 26.1723 30.8128 24.737C32.0869 24.7787 33.5735 24.7459 34.8621 24.747L42.984 24.7425C42.8564 24.0194 42.8766 19.9412 42.9035 19.042C42.985 16.3149 42.7926 13.0683 42.9427 10.3906C39.518 10.2248 35.8085 10.4449 32.3608 10.3588C31.2865 10.3319 29.2224 10.4443 28.231 10.3084C28.4975 9.85957 31.2042 7.18312 31.7353 6.83382C32.9543 5.46413 34.2697 4.34258 32.4787 2.55964C32.1339 2.21625 31.5479 2.06382 31.0695 2.1035C29.2658 2.3391 27.5595 4.67452 26.3038 5.8515C25.8888 6.24047 25.7886 6.52301 25.2648 6.90266C24.5436 6.74439 22.3917 6.86549 21.5163 6.86058C18.6775 6.82963 15.8385 6.82611 12.9996 6.85001C11.4213 6.86107 9.06173 6.95103 7.56681 6.83721L7.54431 45.4329L7.54902 56.3448C7.55184 58.3119 7.6263 60.9023 7.4837 62.8364C9.56214 62.8042 11.6408 62.7909 13.7195 62.7964C14.7037 62.7916 16.074 62.8076 17.0424 62.7365C16.2003 64.1064 14.9515 66.07 16.8203 67.2709C19.5512 69.0256 21.1086 64.4351 22.5329 62.7268C23.0394 61.8251 23.6029 60.9566 24.2198 60.1265C24.7007 59.4853 25.1072 59.0563 25.499 58.3422C26.2014 57.062 27.1805 55.5498 28.1113 54.4333C28.0627 55.9465 28.1201 57.7977 28.1239 59.3361C32.9972 59.136 38.1418 59.4307 43.0037 59.2734C42.8738 58.2057 42.9138 56.9329 42.9126 55.839L42.909 50.7628L42.9084 47.2515C42.908 46.5618 42.8714 45.6567 42.9727 44.9917C39.6352 44.9679 36.2976 44.9618 32.96 44.9737C31.7032 44.976 29.275 45.0686 28.1071 44.9494C28.1592 46.2002 28.1648 48.588 28.0884 49.8182C27.4724 48.9813 26.7554 47.3882 26.2801 46.4493C25.6023 45.1105 24.7395 43.5978 24.2643 42.1941L25.4817 42.1933C25.3997 41.7125 25.4153 40.4525 25.4224 39.9117C25.4387 38.6719 25.2657 36.6761 25.4133 35.4898C25.4841 35.4217 25.8519 34.8031 25.9387 34.6737C26.4911 33.8504 27.4309 32.1659 28.1362 31.5212C28.0761 35.0788 28.1419 38.703 28.123 42.2696ZM59.9924 27.4418C56.5898 27.4136 53.187 27.4049 49.7842 27.416C49.1712 27.4168 46.0147 27.4733 45.5884 27.371C45.5013 27.6898 45.5507 30.6754 45.5503 31.1683C45.5299 34.8682 45.5375 38.5682 45.5731 42.2681C46.8616 42.1543 48.4396 42.1976 49.7509 42.1985L56.359 42.2054C57.4955 42.2071 58.8521 42.2453 59.9708 42.1985L59.9697 32.4733C59.9685 31.0693 59.8917 28.7755 59.9924 27.4418ZM45.5614 24.81C46.9258 24.6742 49.3485 24.7416 50.7704 24.7422L59.9953 24.756C59.8765 22.7332 59.9725 19.8591 59.9702 17.7583C59.9676 15.5429 59.8757 12.5054 60.0003 10.3445L49.4217 10.3373C48.7459 10.337 45.9915 10.4063 45.5298 10.3146C45.6253 14.4331 45.502 18.574 45.5529 22.6948C45.5615 23.3949 45.5699 24.1105 45.5614 24.81ZM45.549 59.3527C46.8698 59.2232 48.9123 59.2813 50.2963 59.2833C53.5391 59.3195 56.7821 59.3306 60.0251 59.3165C59.9321 58.6915 59.968 57.6621 59.969 57.0021L59.9716 53.1562L59.9685 47.9472C59.968 47.0808 59.9322 45.8376 59.9948 44.998C56.6421 44.8905 53.1752 45.017 49.8152 44.9704C48.8594 44.9572 46.3313 45.0574 45.5384 44.9004L45.5582 54.2944C45.5581 55.9126 45.6014 57.759 45.549 59.3527Z" fill="#C15A3E"/>
<path d="M25.2648 6.90266C25.7886 6.52301 25.8888 6.24047 26.3038 5.8515C27.5595 4.67452 29.2658 2.3391 31.0695 2.1035C31.5479 2.06382 32.1339 2.21625 32.4787 2.55964C34.2697 4.34258 32.9543 5.46413 31.7353 6.83382C31.2042 7.18312 28.4975 9.85957 28.231 10.3084L28.1432 10.3996C28.104 13.1804 28.2219 16.4834 28.083 19.1886C28.4272 20.2458 28.9121 21.1196 29.4453 22.0846C29.8445 22.8073 30.2688 24.1572 30.8128 24.737C31.0666 26.1723 31.0953 26.052 30.7774 27.444C30.2086 28.1673 28.4624 30.7356 28.1362 31.5212C27.4309 32.1659 26.4911 33.8504 25.9387 34.6737C25.8519 34.8031 25.4841 35.4217 25.4133 35.4898C25.1132 35.8152 24.7117 36.5182 24.4477 36.9178C23.855 37.8144 23.2422 38.4668 22.8767 39.4841C23.1393 40.1444 23.7394 41.7104 24.2643 42.1941C24.7395 43.5978 25.6023 45.1105 26.2801 46.4493C26.7554 47.3882 27.4724 48.9813 28.0884 49.8182C28.5029 50.9679 29.2455 52.2958 28.6561 53.404C28.548 53.6072 28.2213 54.2926 28.1113 54.4333C27.1805 55.5498 26.2014 57.062 25.499 58.3422C25.1072 59.0563 24.7007 59.4853 24.2198 60.1265C23.6029 60.9566 23.0394 61.8251 22.5329 62.7268C21.1086 64.4351 19.5512 69.0256 16.8203 67.2708C14.9515 66.07 16.2003 64.1064 17.0424 62.7365C16.074 62.8076 14.7037 62.7916 13.7195 62.7964C11.6408 62.7909 9.56214 62.8042 7.4837 62.8364C7.6263 60.9023 7.55184 58.3119 7.54902 56.3448L7.54431 45.4329L7.56681 6.83721C9.06173 6.95103 11.4213 6.86107 12.9996 6.85001C15.8385 6.82611 18.6775 6.82963 21.5163 6.86058C22.3917 6.86549 24.5436 6.74439 25.2648 6.90266ZM25.5695 24.5239C25.1428 23.4939 24.6592 22.4378 24.1546 21.4432C23.9693 21.0499 23.6929 20.6518 23.522 20.256C22.6149 18.1567 21.443 16.1832 20.4753 14.1192C19.6249 12.3052 20.9159 11.4952 21.9331 10.3435C21.0395 10.4105 18.3845 10.3615 17.414 10.3502C15.6048 10.329 12.7512 10.4587 11.0122 10.3194C11.0857 14.5822 10.9974 18.8646 11.0393 23.129C11.0448 23.6906 11.0527 24.2769 11.042 24.8371C13.2513 24.4785 24.5862 25.0701 25.5695 24.5239ZM11.0117 59.3603C12.8464 59.2769 14.662 59.2845 16.4974 59.3009C17.3835 59.3088 18.4858 59.251 19.3415 59.3491C19.6582 59.0119 24.1959 52.1014 24.1939 52.122C23.3219 50.4974 22.5863 48.8066 21.7165 47.1821C21.4129 46.6151 20.988 45.3431 20.5184 44.9776C19.6743 45.0572 17.4426 44.9904 16.521 44.971C14.7886 44.9344 12.7079 45.0486 11.0203 44.9551C11.0741 47.8835 11.0293 50.9281 11.032 53.8655C11.0335 55.4366 11.1063 57.8672 11.0117 59.3603ZM11.0442 42.2729C11.8539 42.1947 18.7002 42.081 19.2535 42.2367C18.457 40.641 17.4765 39.4646 18.522 37.6907C19.3768 36.2403 20.3984 34.9244 21.3254 33.5381L23.9318 29.6232C24.4398 28.8518 24.829 28.1758 25.3914 27.4333L15.7349 27.4269C14.686 27.4283 11.9672 27.5031 11.0302 27.4133C11.0373 32.3473 10.9845 37.3458 11.0442 42.2729Z" fill="#1F3A8A"/>
<path d="M7.56681 6.83721C9.06173 6.95103 11.4213 6.86107 12.9996 6.85001C15.8385 6.82611 18.6775 6.82963 21.5163 6.86058C22.3917 6.86549 24.5436 6.7444 25.2648 6.90266C24.8958 7.5484 22.573 9.79685 21.9331 10.3435C21.0395 10.4105 18.3845 10.3615 17.414 10.3502C15.6048 10.329 12.7512 10.4587 11.0122 10.3194C11.0857 14.5822 10.9974 18.8646 11.0393 23.129C11.0448 23.6906 11.0527 24.2769 11.042 24.8371C13.2513 24.4785 24.5862 25.0701 25.5695 24.5239C25.9986 24.8269 26.2555 25.4746 26.4453 25.9627C26.1475 26.49 25.5483 27.1127 25.3914 27.4333L15.7349 27.4269C14.686 27.4283 11.9672 27.5031 11.0302 27.4133C11.0373 32.3473 10.9845 37.3459 11.0442 42.2729C11.8539 42.1947 18.7002 42.081 19.2535 42.2367C19.6611 42.9948 20.3413 44.1579 20.5184 44.9776C19.6743 45.0572 17.4426 44.9904 16.521 44.971C14.7886 44.9344 12.7079 45.0486 11.0203 44.9551C11.0741 47.8835 11.0293 50.9281 11.032 53.8655C11.0335 55.4366 11.1063 57.8672 11.0117 59.3603C12.8464 59.2769 14.662 59.2845 16.4974 59.3009C17.3835 59.3088 18.4858 59.251 19.3415 59.3491C18.9176 60.2863 17.7424 62.0341 17.0424 62.7365C16.074 62.8076 14.7037 62.7916 13.7195 62.7964C11.6408 62.7909 9.56214 62.8042 7.4837 62.8365C7.6263 60.9023 7.55184 58.3119 7.54902 56.3449L7.54431 45.4329L7.56681 6.83721Z" fill="#C15A3E"/>
<path d="M25.4175 13.0082C26.3711 12.1411 27.1176 11.2771 28.1432 10.3996C28.104 13.1803 28.2219 16.4833 28.083 19.1886C27.2381 17.9919 25.9576 15.3117 25.4554 13.8819C25.4071 13.7447 25.4147 13.1889 25.4175 13.0082Z" fill="#C15A3E"/>
</svg>
